<svg xmlns="http://www.w3.org/2000/svg" viewBox="0 0 80 80" role="img" aria-label="EduSaludCC">
  <defs>
    <linearGradient id="heart" x1="0" y1="0" x2="1" y2="1">
      <stop offset="0%" stop-color="hsl(8, 88%, 60%)"/>
      <stop offset="100%" stop-color="hsl(2, 78%, 46%)"/>
    </linearGradient>
    <linearGradient id="book" x1="0" y1="0" x2="1" y2="1">
      <stop offset="0%" stop-color="hsl(217, 91%, 55%)"/>
      <stop offset="100%" stop-color="hsl(224, 76%, 38%)"/>
    </linearGradient>
  </defs>
  <!-- Book -->
  <path d="M42 18 C 50 14, 62 14, 70 18 L70 60 C 62 56, 50 56, 42 60 Z"
        fill="url(#book)" />
  <!-- Heart -->
  <path d="M22 22 C 14 22, 10 30, 16 38 L34 56 L52 38 C 58 30, 54 22, 46 22 C 40 22, 36 26, 34 30 C 32 26, 28 22, 22 22 Z"
        fill="url(#heart)" />
  <!-- Heartbeat line -->
  <path d="M12 40 L20 40 L24 32 L28 48 L32 36 L36 42 L44 42 L48 36 L52 44 L60 40 L68 40"
        fill="none" stroke="#ffffff" stroke-width="2.6" stroke-linecap="round" stroke-linejoin="round" />
</svg>
